<svg width="16" height="16" viewBox="0 0 16 16" fill="none" xmlns="http://www.w3.org/2000/svg">
<g clip-path="url(#clip0_700_23)">
<path d="M14.7625 2.20802L12.8553 0.293293C12.7325 0.188282 12.59 0.108669 12.4361 0.0590527C12.2823 0.00943651 12.1202 -0.00919818 11.959 0.00422564C11.798 0.0176494 11.6412 0.0628656 11.4977 0.137261C11.3541 0.211656 11.2268 0.313754 11.123 0.437656L9.39062 2.20802L12.8857 5.70314L14.6181 3.97078C14.8911 3.70734 15.0494 3.34706 15.0588 2.96782C15.0645 2.8276 15.041 2.68771 14.9901 2.55695C14.9391 2.4262 14.8616 2.3074 14.7625 2.20802Z" fill="#4D50AD"/>
<path d="M8.58441 2.96777L1.10028 10.4671C0.890732 10.6737 0.747833 10.9384 0.689983 11.227L0.0213495 14.0914C-0.00947672 14.2252 -0.00688559 14.3645 0.0288941 14.497C0.0646737 14.6295 0.13254 14.7512 0.226498 14.8512C0.380248 14.9974 0.584221 15.079 0.796356 15.0792C0.864536 15.0866 0.933326 15.0866 1.00151 15.0792L3.866 14.3649C4.15361 14.3045 4.41753 14.162 4.6258 13.9547L12.1176 6.4705L8.58441 2.96777Z" fill="#4D50AD"/>
</g>
<defs>
<clipPath id="clip0_700_23">
<rect width="15.0588" height="16" fill="white"/>
</clipPath>
</defs>
</svg>
